<?xml version="1.0" standalone="no"?>
<!DOCTYPE svg PUBLIC "-//W3C//DTD SVG 20010904//EN"
 "http://www.w3.org/TR/2001/REC-SVG-20010904/DTD/svg10.dtd">
<svg version="1.0" xmlns="http://www.w3.org/2000/svg"
 width="698.000000pt" height="342.000000pt" viewBox="0 0 698.000000 342.000000"
 preserveAspectRatio="xMidYMid meet">

<g transform="translate(0.000000,342.000000) scale(0.100000,-0.100000)"
fill="#000000" stroke="none">
<path d="M1966 3371 c-45 -46 -52 -72 -60 -207 -17 -291 -28 -470 -31 -475 -2
-3 -7 -80 -10 -171 -5 -127 -4 -168 6 -173 18 -12 110 -6 127 7 39 33 49 80
66 323 9 132 21 285 26 340 17 190 23 362 12 369 -6 3 -31 10 -56 15 -43 8
-46 7 -80 -28z m84 -58 c0 -46 -29 -505 -35 -548 -3 -22 -8 -92 -11 -155 -4
-63 -11 -126 -17 -140 -11 -23 -12 -22 -15 20 -2 25 2 110 8 190 6 80 18 226
25 325 22 287 27 335 36 335 5 0 9 -12 9 -27z m-98 -175 c-8 -8 -9 -4 -5 13 4
13 8 18 11 10 2 -7 -1 -18 -6 -23z m8 -748 c0 -5 -5 -10 -11 -10 -5 0 -7 5 -4
10 3 6 8 10 11 10 2 0 4 -4 4 -10z"/>
<path d="M155 3362 c-70 -4 -91 -18 -106 -76 -6 -23 -17 -51 -24 -62 -12 -19
-10 -34 16 -120 39 -134 82 -255 140 -401 27 -67 60 -161 73 -209 14 -47 31
-92 37 -100 12 -14 55 -25 114 -28 35 -1 38 1 70 59 39 70 63 128 116 280 21
61 38 102 38 93 1 -9 21 -70 45 -135 24 -65 55 -156 67 -202 27 -96 38 -106
121 -116 l56 -7 36 56 c20 31 35 60 34 64 -2 4 18 57 44 117 26 61 52 130 58
155 6 25 38 151 70 280 33 129 62 243 64 252 6 28 -34 55 -91 60 -61 6 -62 5
-93 -47 -13 -22 -38 -63 -56 -90 -18 -28 -37 -70 -43 -95 -5 -25 -17 -80 -27
-124 -9 -43 -21 -94 -26 -114 l-10 -36 -12 29 c-7 17 -19 55 -26 85 -15 65
-116 379 -129 398 -4 7 -31 15 -58 18 -39 3 -56 0 -74 -15 -31 -24 -128 -215
-134 -261 -8 -68 -49 -230 -56 -223 -4 5 -17 45 -28 90 -35 135 -122 407 -134
418 -7 6 -39 9 -72 7z m48 -104 c15 -44 98 -313 144 -467 30 -102 61 -171 77
-171 33 0 80 137 146 425 49 216 53 227 81 223 24 -3 29 -15 99 -238 27 -85
55 -175 63 -200 8 -25 23 -73 32 -107 19 -66 48 -123 63 -123 13 0 59 105 88
202 20 67 85 324 109 436 5 21 38 31 49 14 10 -16 -118 -490 -175 -647 l-30
-82 -38 0 c-37 0 -39 2 -51 41 -6 22 -45 124 -85 226 -40 102 -80 208 -89 235
-9 28 -20 56 -24 62 -18 28 -40 -16 -72 -142 -35 -141 -95 -335 -115 -375 -11
-22 -19 -25 -52 -22 l-38 4 -58 161 c-85 234 -197 557 -197 567 0 5 10 11 23
13 12 2 25 5 28 6 4 0 13 -18 22 -41z m-122 -75 c-12 -20 -14 -14 -5 12 4 9 9
14 11 11 3 -2 0 -13 -6 -23z m939 -47 c-6 -20 -16 -36 -21 -36 -5 0 -2 16 6
36 8 20 15 39 15 42 0 3 3 3 6 -1 3 -3 1 -22 -6 -41z m-903 -53 c-3 -10 -5 -4
-5 12 0 17 2 24 5 18 2 -7 2 -21 0 -30z m393 -34 c-7 -11 -14 -18 -17 -15 -3
3 0 12 7 21 18 21 23 19 10 -6z m482 -21 c-7 -7 -12 -8 -12 -2 0 14 12 26 19
19 2 -3 -1 -11 -7 -17z m-839 -58 c-7 -28 -13 -25 -13 6 0 14 4 23 9 20 5 -3
7 -15 4 -26z m328 -37 c-8 -15 -10 -15 -11 -2 0 17 10 32 18 25 2 -3 -1 -13
-7 -23z m485 -29 c-4 -9 -9 -15 -11 -12 -3 3 -3 13 1 22 4 9 9 15 11 12 3 -3
3 -13 -1 -22z m-772 -49 c-6 -15 -8 -15 -16 -2 -4 8 -5 23 -2 32 6 15 8 15 16
2 4 -8 5 -23 2 -32z m486 -5 c0 -10 -4 -22 -10 -25 -6 -4 -10 7 -10 25 0 18 4
29 10 25 6 -3 10 -15 10 -25z m-445 -97 c-5 -22 -8 -25 -15 -12 -12 21 -1 64
13 50 5 -5 6 -22 2 -38z m476 -36 c-8 -8 -11 -4 -11 14 0 33 14 47 18 19 2
-12 -1 -27 -7 -33z m-414 -144 c-3 -10 -5 -4 -5 12 0 17 2 24 5 18 2 -7 2 -21
0 -30z m30 -85 c-3 -8 -6 -5 -6 6 -1 11 2 17 5 13 3 -3 4 -12 1 -19z m493 -14
c0 -8 -5 -12 -10 -9 -6 4 -8 11 -5 16 9 14 15 11 15 -7z m-401 -20 c9 -8 -13
-24 -35 -24 -26 0 -27 1 -18 24 4 12 13 15 28 10 11 -4 23 -8 25 -10z m484
-29 c1 -5 -13 -11 -30 -13 -31 -3 -42 6 -26 22 10 10 53 3 56 -9z"/>
<path d="M5835 3340 l-129 -5 -34 -60 c-30 -54 -33 -66 -29 -114 3 -30 11 -59
17 -65 6 -6 49 -11 102 -11 l91 0 -7 -315 c-4 -173 -9 -348 -10 -387 -2 -52 1
-76 10 -84 8 -7 45 -11 87 -10 68 1 74 3 106 36 45 45 49 80 50 464 1 162 4
297 6 300 3 2 33 5 68 7 34 1 65 2 69 3 4 0 19 17 34 36 33 44 49 148 28 182
-13 21 -21 22 -171 25 -87 2 -216 1 -288 -2z m330 -64 c71 -3 80 -5 80 -22 0
-17 -9 -19 -86 -20 -142 -3 -129 37 -129 -397 0 -205 -3 -381 -6 -393 -4 -16
-11 -20 -30 -16 l-24 4 -1 177 c-2 206 -3 169 6 401 5 148 4 188 -7 202 -10
14 -33 17 -110 19 -94 3 -98 4 -98 25 0 21 6 23 53 26 54 3 211 1 352 -6z
m-385 -115 c-6 -13 -20 -19 -39 -19 -26 1 -28 3 -18 19 7 11 23 19 40 19 24 0
26 -2 17 -19z m110 -12 c-9 -16 -17 -19 -38 -14 -33 8 -36 11 -27 24 3 6 22
11 41 11 32 0 34 -2 24 -21z m238 9 c-6 -18 -28 -21 -28 -4 0 9 7 16 16 16 9
0 14 -5 12 -12z m102 7 c0 -8 -44 -23 -53 -18 -14 8 4 23 29 23 13 0 24 -2 24
-5z m-313 -77 c-3 -8 -6 -5 -6 6 -1 11 2 17 5 13 3 -3 4 -12 1 -19z m-7 -697
c0 -6 -4 -13 -10 -16 -5 -3 -10 1 -10 9 0 9 5 16 10 16 6 0 10 -4 10 -9z m85
-41 c-3 -5 -15 -10 -26 -10 -10 0 -19 5 -19 10 0 6 12 10 26 10 14 0 23 -4 19
-10z"/>
<path d="M3813 3115 c-19 -8 -45 -33 -61 -59 l-29 -45 -24 25 c-68 73 -161 72
-241 -4 l-28 -26 0 43 0 44 -46 -7 c-26 -3 -55 -6 -66 -6 -11 0 -31 -20 -52
-53 -32 -49 -33 -55 -25 -107 8 -54 38 -274 59 -437 19 -147 21 -149 114 -137
42 6 49 11 66 45 31 59 33 108 15 263 -18 141 -18 147 0 187 21 45 58 79 86
79 11 0 19 -1 19 -2 0 -2 10 -57 21 -123 12 -66 25 -149 30 -185 12 -97 28
-191 35 -202 7 -11 80 -3 121 13 38 14 52 62 43 149 -31 299 -33 341 -12 369
53 71 70 23 112 -304 12 -86 16 -105 32 -148 10 -26 14 -28 65 -26 52 2 56 5
80 42 l25 39 -22 162 c-29 211 -60 316 -109 365 -56 56 -141 75 -208 46z m153
-80 c20 -15 43 -44 51 -63 31 -74 78 -392 58 -392 -7 0 -18 48 -29 128 -28
201 -34 232 -56 267 -33 53 -63 68 -111 55 -50 -14 -84 -46 -110 -104 -19 -44
-19 -45 0 -148 27 -143 32 -235 15 -242 -14 -6 -17 4 -34 139 -19 147 -40 224
-72 261 -54 62 -140 55 -201 -17 -57 -66 -63 -99 -43 -246 10 -71 20 -138 23
-150 4 -18 1 -23 -14 -23 -15 0 -21 12 -31 65 -6 35 -12 78 -12 94 0 30 -46
310 -56 344 -4 12 0 17 15 17 18 0 21 -6 21 -39 0 -50 15 -91 33 -91 8 0 31
25 51 55 39 59 86 95 124 95 15 0 45 -21 81 -55 69 -66 83 -65 116 11 15 33
33 58 47 64 36 15 96 4 134 -25z m-629 -367 c-3 -8 -6 -5 -6 6 -1 11 2 17 5
13 3 -3 4 -12 1 -19z m100 -255 c-9 -9 -19 -14 -23 -11 -10 10 6 28 24 28 15
0 15 -1 -1 -17z"/>
<path d="M2723 3063 c-87 -59 -138 -149 -151 -268 -12 -110 0 -202 39 -281 28
-55 41 -70 98 -107 88 -57 113 -67 171 -67 71 0 150 33 199 83 91 91 119 307
59 439 -37 81 -95 139 -183 184 -104 52 -173 57 -232 17z m183 -64 c67 -25
138 -88 171 -153 23 -44 27 -64 27 -142 1 -87 -1 -94 -30 -135 -49 -67 -73
-81 -151 -86 -78 -6 -126 12 -175 64 -90 95 -109 353 -31 436 50 52 84 55 189
16z m-211 -508 c-9 -16 -25 -3 -18 15 4 10 9 12 15 6 6 -6 7 -15 3 -21z"/>
<path d="M2309 3032 c-76 -39 -109 -92 -138 -221 -51 -225 -3 -365 152 -440
71 -34 93 -27 144 47 24 35 43 67 43 71 0 4 -23 18 -51 32 -97 45 -161 151
-139 231 12 41 59 88 120 121 55 29 107 115 89 148 -25 48 -139 54 -220 11z
m124 -39 c-7 -2 -21 -2 -30 0 -10 3 -4 5 12 5 17 0 24 -2 18 -5z m-99 -48
c-52 -52 -61 -73 -74 -168 -18 -121 23 -216 123 -288 31 -22 35 -29 20 -29
-11 0 -35 10 -54 23 -41 27 -105 147 -114 215 -13 98 33 228 95 270 52 35 54
26 4 -23z"/>
<path d="M1518 3036 c-82 -22 -134 -73 -181 -176 -77 -170 -55 -344 52 -412
44 -27 77 -39 150 -52 28 -5 38 -1 67 28 27 27 34 42 34 73 0 41 -7 57 -30 66
-16 7 69 -1 106 -9 41 -10 104 139 104 247 0 83 -11 110 -64 165 -66 68 -152
93 -238 70z m123 -57 c41 -14 76 -44 96 -82 22 -44 28 -155 10 -198 l-15 -36
-53 4 c-30 3 -97 13 -149 23 -80 15 -97 16 -109 5 -12 -12 -12 -20 3 -60 19
-48 57 -83 116 -105 45 -17 62 -32 24 -21 -36 10 -89 37 -127 63 -67 48 -76
175 -19 290 18 36 45 74 60 84 72 47 102 53 163 33z"/>
<path d="M4432 3031 c-67 -23 -115 -69 -154 -146 -64 -124 -76 -251 -34 -346
34 -78 79 -110 185 -135 62 -15 98 -3 127 40 23 37 15 97 -16 114 -22 11 -19
12 35 7 33 -4 67 -9 76 -11 11 -3 25 14 47 58 39 78 55 155 47 230 -16 141
-175 238 -313 189z m139 -52 c78 -25 130 -132 115 -236 -10 -75 -17 -81 -83
-76 -32 3 -98 13 -148 23 -76 16 -92 17 -104 5 -32 -31 22 -118 97 -156 68
-34 76 -43 21 -24 -63 23 -121 65 -142 105 -14 27 -17 51 -14 110 4 88 29 150
78 199 57 57 111 72 180 50z"/>
<path d="M6479 3012 c-48 -31 -114 -120 -135 -181 -18 -55 -26 -180 -14 -246
13 -81 62 -176 106 -210 66 -50 150 -86 201 -86 74 -1 154 34 205 89 37 39 48
62 66 128 47 172 11 330 -97 427 -54 48 -165 98 -231 104 -48 4 -61 1 -101
-25z m196 -71 c122 -56 181 -139 192 -267 6 -76 -6 -118 -52 -178 -35 -46 -81
-66 -149 -66 -104 0 -190 70 -219 178 -41 154 -26 269 44 336 38 35 44 38 82
32 23 -4 69 -19 102 -35z m-220 -500 c-9 -16 -25 -3 -18 15 4 10 9 12 15 6 6
-6 7 -15 3 -21z"/>
<path d="M2159 1397 c-19 -13 -47 -48 -65 -81 l-31 -58 -22 35 c-28 46 -84 95
-117 103 -42 11 -103 -14 -155 -63 l-49 -46 0 63 0 63 -46 -7 c-26 -3 -59 -6
-74 -6 -23 0 -33 -11 -69 -70 -41 -70 -41 -70 -32 -132 6 -33 8 -64 6 -68 -2
-4 0 -70 6 -146 5 -77 12 -213 14 -304 5 -179 19 -306 37 -327 6 -8 19 -11 32
-7 11 4 43 9 70 13 l51 6 28 70 c33 83 34 100 24 367 l-9 207 33 61 c44 83 95
121 115 88 4 -7 12 -60 17 -118 5 -58 10 -118 12 -135 2 -16 6 -84 10 -150 14
-246 22 -327 37 -341 12 -12 24 -12 78 -1 56 11 68 18 89 47 l23 35 -5 310
c-3 184 -1 320 5 335 12 31 47 70 64 70 26 0 46 -165 63 -513 10 -213 17 -232
81 -231 84 2 84 2 112 57 l27 52 -14 233 c-15 244 -17 264 -41 376 -25 116
-80 200 -147 225 -49 19 -120 13 -158 -12z m149 -71 c20 -13 45 -33 55 -44 41
-45 69 -233 82 -529 4 -109 3 -133 -9 -133 -19 0 -24 44 -31 255 -8 213 -18
286 -50 340 -38 66 -57 78 -109 71 -62 -10 -87 -33 -126 -116 -32 -70 -32 -75
-26 -164 3 -50 9 -167 13 -260 6 -161 5 -168 -13 -164 -14 2 -19 12 -20 38 0
19 -4 87 -8 150 -20 339 -39 410 -121 450 -23 11 -50 20 -61 20 -40 -1 -99
-45 -132 -100 -54 -91 -62 -131 -52 -277 20 -299 20 -301 3 -307 -31 -12 -35
14 -48 309 -3 72 -12 192 -20 269 -20 184 -19 196 4 196 16 0 19 -10 23 -90 2
-50 9 -95 14 -100 16 -16 52 16 79 69 26 52 107 131 134 131 31 0 82 -40 109
-86 48 -82 56 -90 84 -77 17 8 31 29 47 72 36 99 100 127 179 77z m-741 -293
c-3 -10 -5 -4 -5 12 0 17 2 24 5 18 2 -7 2 -21 0 -30z m10 -110 c-3 -10 -5 -4
-5 12 0 17 2 24 5 18 2 -7 2 -21 0 -30z m9 -110 c-11 -11 -17 4 -9 23 7 18 8
18 11 1 2 -10 1 -21 -2 -24z m14 -87 c0 -3 -4 -8 -10 -11 -5 -3 -10 -1 -10 4
0 6 5 11 10 11 6 0 10 -2 10 -4z m-3 -108 c-3 -8 -6 -5 -6 6 -1 11 2 17 5 13
3 -3 4 -12 1 -19z m843 -78 c0 -5 -9 -10 -20 -10 -11 0 -20 5 -20 10 0 6 9 10
20 10 11 0 20 -4 20 -10z m-332 -42 c-6 -18 -48 -30 -48 -13 0 12 14 20 43 24
5 0 7 -4 5 -11z m-422 -54 c-7 -14 -20 -24 -33 -24 -21 0 -22 1 -6 29 22 37
57 33 39 -5z"/>
<path d="M3793 1410 c-91 -19 -123 -48 -151 -141 l-21 -66 44 -239 c59 -320
108 -552 126 -589 13 -27 18 -30 54 -27 58 5 87 22 108 62 16 30 18 50 12 135
-3 55 -12 136 -20 180 -19 107 -20 102 24 124 82 42 143 152 143 256 0 51 -6
78 -31 130 -17 37 -40 79 -51 96 -45 63 -147 97 -237 79z m138 -82 c91 -51
140 -190 107 -300 -13 -43 -91 -138 -113 -138 -8 0 -26 -10 -41 -23 l-26 -23
29 -177 c16 -97 26 -177 22 -177 -4 0 -10 15 -14 32 -3 18 -10 53 -16 78 -5
25 -21 110 -35 190 -14 80 -34 180 -45 224 -24 92 -61 297 -56 302 11 11 87
33 116 33 18 1 51 -9 72 -21z m-180 -485 c-9 -16 -10 -16 -11 -1 0 9 3 25 7
35 7 16 8 17 11 1 2 -10 -1 -25 -7 -35z m25 -89 c-4 -9 -9 -15 -11 -12 -3 3
-3 13 1 22 4 9 9 15 11 12 3 -3 3 -13 -1 -22z m16 -86 c-7 -7 -12 -8 -12 -2 0
14 12 26 19 19 2 -3 -1 -11 -7 -17z m108 -253 c-7 -8 -17 -15 -22 -15 -6 0 -5
7 2 15 7 8 17 15 22 15 6 0 5 -7 -2 -15z"/>
<path d="M6031 1375 c-42 -46 -47 -65 -56 -220 -15 -271 -27 -461 -31 -466 -7
-13 -14 -315 -7 -326 9 -13 24 -16 80 -14 36 1 46 6 69 36 29 39 33 67 54 360
6 88 15 207 20 265 18 202 23 377 12 384 -6 3 -31 10 -56 15 -45 8 -46 8 -85
-34z m89 -49 c0 -49 -30 -532 -34 -551 -3 -11 -8 -76 -11 -145 -7 -134 -11
-160 -26 -160 -13 0 -11 56 11 341 36 468 43 539 51 539 5 0 9 -11 9 -24z
m-93 -168 c-3 -8 -6 -5 -6 6 -1 11 2 17 5 13 3 -3 4 -12 1 -19z m3 -758 c0 -5
-5 -10 -11 -10 -5 0 -7 5 -4 10 3 6 8 10 11 10 2 0 4 -4 4 -10z"/>
<path d="M5433 1329 c-46 -23 -80 -66 -118 -152 -43 -99 -46 -131 -31 -325 8
-97 20 -249 26 -337 13 -186 23 -244 41 -256 8 -5 32 -6 54 -2 106 15 126 56
106 220 -7 59 -15 118 -18 131 -4 18 -1 22 20 22 60 0 105 76 86 145 -10 34
-11 35 -59 35 -58 0 -53 -11 -76 168 -21 156 -18 167 45 167 37 0 44 5 86 55
25 30 45 58 45 63 0 20 -37 61 -67 73 -46 20 -91 17 -140 -7z m122 -49 c15 -6
23 -15 20 -21 -4 -6 -14 -7 -24 -3 -22 9 -69 6 -93 -7 -28 -15 -58 -86 -58
-139 0 -45 17 -266 26 -327 5 -32 6 -33 57 -34 l52 -2 -47 -6 c-26 -4 -49 -9
-52 -11 -2 -3 2 -74 9 -159 12 -150 11 -191 -5 -191 -13 0 -20 76 -25 260 -4
163 -14 273 -35 395 -9 56 1 139 23 182 33 64 89 87 152 63z"/>
<path d="M5711 1215 c-37 -41 -41 -49 -41 -98 0 -29 5 -58 12 -65 17 -17 113
-15 147 2 47 25 64 61 58 123 -8 72 -18 83 -82 83 -49 0 -55 -3 -94 -45z m109
-35 c0 -11 -4 -20 -10 -20 -5 0 -10 9 -10 20 0 11 5 20 10 20 6 0 10 -9 10
-20z"/>
<path d="M4215 1114 c-16 -22 -33 -42 -39 -46 -6 -4 -12 -133 -14 -345 -4
-331 -4 -338 16 -357 29 -26 135 -14 168 19 31 32 54 115 54 201 0 99 18 222
38 264 12 23 33 42 67 60 54 27 63 48 50 117 -6 32 -7 33 -56 33 -27 0 -63 -7
-78 -15 l-29 -14 -6 42 c-10 63 -18 70 -83 75 -59 4 -59 4 -88 -34z m105 -66
c0 -18 3 -56 6 -85 9 -71 28 -76 79 -19 40 45 78 65 89 47 4 -5 -12 -20 -35
-33 -75 -42 -119 -170 -119 -350 0 -91 -1 -98 -20 -98 -17 0 -20 7 -20 53 -1
28 -2 157 -3 284 -2 181 1 233 11 233 7 0 12 -13 12 -32z m-93 -280 c-3 -7 -5
-2 -5 12 0 14 2 19 5 13 2 -7 2 -19 0 -25z m0 -190 c-3 -7 -5 -2 -5 12 0 14 2
19 5 13 2 -7 2 -19 0 -25z m92 -154 c-12 -15 -39 -19 -39 -6 0 15 22 30 36 25
11 -4 12 -9 3 -19z"/>
<path d="M2681 1074 c-31 -29 -49 -59 -71 -119 -17 -44 -30 -88 -30 -98 0 -9
18 -53 39 -96 46 -91 111 -249 111 -269 0 -8 -36 -74 -80 -148 -87 -145 -93
-169 -60 -234 17 -33 57 -69 64 -58 1 2 16 21 33 43 17 22 52 76 77 120 26 44
72 118 103 165 30 47 90 144 132 215 43 72 106 175 139 230 34 55 62 105 62
110 0 6 -21 37 -47 69 l-47 59 -44 -49 c-24 -27 -70 -89 -103 -138 l-59 -89
-16 39 c-36 90 -105 221 -132 253 l-29 35 -42 -40z m108 -197 c39 -79 71 -149
71 -155 0 -7 12 -15 26 -18 31 -8 41 2 110 116 25 41 58 90 74 109 25 29 31
32 45 21 22 -18 19 -32 -17 -80 -54 -71 -117 -172 -143 -228 -13 -29 -57 -101
-98 -160 -41 -59 -93 -140 -117 -181 -39 -65 -45 -71 -53 -54 -7 17 2 39 43
109 29 49 72 117 96 150 24 34 44 65 44 70 0 5 -41 93 -91 197 -86 176 -91
189 -79 217 7 17 14 30 15 30 2 0 35 -65 74 -143z m-129 -18 c0 -11 -4 -17
-10 -14 -5 3 -10 13 -10 21 0 8 5 14 10 14 6 0 10 -9 10 -21z m34 -84 c-4 -8
-8 -15 -10 -15 -2 0 -4 7 -4 15 0 8 4 15 10 15 5 0 7 -7 4 -15z m46 -75 c7
-14 8 -26 1 -38 -9 -15 -11 -14 -19 8 -8 22 -6 50 4 50 2 0 8 -9 14 -20z m33
-95 c-3 -9 -8 -14 -10 -11 -3 3 -2 9 2 15 9 16 15 13 8 -4z m-122 -478 c-5 -5
-13 5 -19 21 -7 22 -7 33 1 41 9 9 14 4 19 -21 4 -18 3 -37 -1 -41z"/>
<path d="M4760 1083 c-123 -83 -179 -214 -168 -392 10 -154 70 -246 201 -311
77 -38 131 -41 208 -14 84 30 142 92 170 184 47 151 24 301 -61 409 -78 99
-281 171 -350 124z m162 -72 c99 -38 175 -116 199 -204 17 -63 14 -158 -6
-200 -24 -50 -86 -104 -130 -113 -100 -18 -194 22 -242 104 -51 87 -68 234
-37 328 20 58 29 71 69 96 35 22 64 20 147 -11z m-202 -503 c0 -16 -3 -19 -11
-11 -6 6 -8 16 -5 22 11 17 16 13 16 -11z m90 -62 c0 -3 -4 -8 -10 -11 -5 -3
-10 -1 -10 4 0 6 5 11 10 11 6 0 10 -2 10 -4z"/>
<path d="M6463 1050 c-46 -11 -119 -56 -141 -88 -64 -91 -109 -239 -98 -324 4
-29 19 -76 32 -105 22 -47 33 -57 85 -84 118 -59 190 -55 225 12 21 41 11 96
-19 109 -16 7 -8 8 28 4 28 -3 57 -7 65 -10 51 -13 110 121 110 253 0 86 -11
111 -72 170 -33 32 -58 45 -104 57 -67 17 -65 17 -111 6z m121 -66 c34 -12 54
-27 71 -53 50 -75 50 -232 1 -251 -23 -8 -103 1 -217 25 -40 8 -76 12 -80 9
-14 -8 -11 -52 5 -82 20 -38 54 -68 106 -91 25 -11 37 -21 26 -21 -11 0 -47
16 -81 35 -76 42 -98 81 -99 170 -1 108 54 213 132 255 46 24 75 25 136 4z"/>
<path d="M5718 952 c-19 -20 -39 -46 -43 -57 -4 -11 -11 -114 -16 -229 -10
-255 -8 -261 77 -264 56 -3 96 18 124 63 20 33 22 51 27 253 5 263 4 266 -78
269 -52 2 -58 0 -91 -35z m102 -84 c1 -35 2 -121 3 -193 2 -116 0 -130 -15
-133 -16 -3 -18 7 -18 110 0 144 10 278 21 278 5 0 9 -28 9 -62z m-98 -70 c-7
-7 -12 -8 -12 -2 0 14 12 26 19 19 2 -3 -1 -11 -7 -17z m3 -68 c-4 -12 -9 -19
-12 -17 -3 3 -2 15 2 27 4 12 9 19 12 17 3 -3 2 -15 -2 -27z m-10 -98 c-15
-16 -16 -15 -4 12 7 15 15 23 17 16 3 -7 -3 -19 -13 -28z m2 -144 c-3 -8 -6
-5 -6 6 -1 11 2 17 5 13 3 -3 4 -12 1 -19z"/>
</g>
</svg>
